Format : AVI
Format/Info : Audio Video Interleave
File size : 1.35 GiB
Duration : 1h 23mn
Overall bit rate : 2 329 Kbps
Writing application : VirtualDubMod 1.5.4.1 (build 2178/release)
Writing library : VirtualDub build 32842/release

Video
ID : 0
Format : MPEG-4 Visual
Format profile : Advanced Simple@L5
Format settings, BVOP : 2
Format settings, QPel : No
Format settings, GMC : No warppoints
Format settings, Matrix : Default (H.263)
Muxing mode : Packed bitstream
Codec ID : XVID
Codec ID/Hint : XviD
Duration : 1h 23mn
Bit rate : 1 935 Kbps
Width : 720 pixels
Height : 384 pixels
Display aspect ratio : 1.875
Frame rate : 25.000 fps
Color space : YUV
Chroma subsampling : 4:2:0
Bit depth : 8 bits
Scan type : Progressive
Compression mode : Lossy
Bits/(Pixel*Frame) : 0.280
Stream size : 1.12 GiB (83%)
Writing library : XviD 64

Audio
ID : 1
Format : AC-3
Format/Info : Audio Coding 3
Mode extension : CM (complete main)
Codec ID : 2000
Duration : 1h 23mn
Bit rate mode : Constant
Bit rate : 384 Kbps
Channel(s) : 6 channels
Channel positions : Front: L C R, Side: L R, LFE
Sampling rate : 48.0 KHz
Bit depth : 16 bits
Compression mode : Lossy
Stream size : 228 MiB (16%)
Alignment : Split accross interleaves
Interleave, duration : 40 ms (1.00 video frame)









 
http://www.imdb.com/title/tt1772240/



Ratings: 5.6/10 from 5,674 users Metascore: 24/100
Reviews: 154 user | 96 critic | 19 from Metacritic.com

Decades-old found footage from NASA's abandoned Apollo 18 mission, where two American astronauts were sent on a secret expedition, reveals the reason the U.S. has never returned to the moon.
Director:
Gonzalo López-Gallego
Writers:
Brian Miller (screenplay), Cory Goodman
Stars:
Warren Christie, Ryan Robbins and Ali Liebert

















Source Used


Russian DVD9 .........Thanks
MiSTERE .....................Thanks matey


Just my take on it with filters ......Sample included so check it out

AR Changes alot but meant to be like that its way it was filmed


Enjoy





Greetz to IMAGiNE,Flawl3ss,EMBER,CreWsaDe,ETRG,BHRG,iLLUMiNATi,ViSUALiSE,MiSTERE
